<?xml version="1.0" standalone="no"?>
<!DOCTYPE svg PUBLIC "-//W3C//DTD SVG 1.1//EN" "http://www.w3.org/Graphics/SVG/1.1/DTD/svg11.dtd" >
<!--
2013-9-30: Created.
-->
<svg>
<metadata>
Created by iconfont
</metadata>
<defs>

<font id="iconfont" horiz-adv-x="1024" >
  <font-face
    font-family="iconfont"
    font-weight="500"
    font-stretch="normal"
    units-per-em="1024"
    ascent="896"
    descent="-128"
  />
    <missing-glyph />
    
    <glyph glyph-name="dian" unicode="&#58903;" d="M527.508717 392.615215m-226.342028 0a221.187 221.187 0 1 0 452.684056 0 221.187 221.187 0 1 0-452.684056 0Z"  horiz-adv-x="1024" />

    
    <glyph glyph-name="huifu" unicode="&#59006;" d="M1024 0c0 0-96 556.8-595.2 556.8l0 211.2-428.8-384 428.8-358.4v243.2c268.8 0 454.4-19.2 595.2-268.8v0 0z"  horiz-adv-x="1024" />

    
    <glyph glyph-name="gongjulanxinjianhuitu" unicode="&#58955;" d="M480 769.17876C249.6 769.17876 57.6 635.766995 57.6 476.943466 57.6 318.119936 243.2 184.708173 480 184.708173 595.2 184.708173 627.2 203.766995 633.6 216.472877 646.4 235.5317 633.6 273.649348 614.4 311.766995 595.2 356.237583 576 400.708172 601.6 438.825818 614.4 464.237583 640 476.943466 665.6 476.943466 697.6 476.943466 736 457.884642 780.8 438.825818 812.8 419.766995 851.2 407.061112 870.4 407.061112 876.8 407.061112 902.4 407.061112 902.4 483.296406 902.4 635.766995 710.4 769.17876 480 769.17876M480 127.531699C217.6 127.531699 0 286.35523 0 476.943466 0 667.5317 217.6 826.35523 480 826.35523 742.4 826.35523 960 667.5317 960 476.943466 960 388.002289 928 343.5317 870.4 343.5317 832 343.5317 793.6 362.590524 748.8 381.649348 704 400.708172 659.2 426.119936 646.4 407.061112 640 394.35523 652.8 362.590524 665.6 330.825818 684.8 280.002289 710.4 229.17876 678.4 184.708173 659.2 146.590522 588.8 127.531699 480 127.531699M435.2 712.002259C403.2 712.002259 371.2 699.296376 371.2 686.590494 371.2 667.53167 396.8 654.825788 428.8 654.825788 460.8 654.825788 486.4 667.53167 486.4 686.590494 492.8 699.296376 467.2 712.002259 435.2 712.002259M646.4 692.943436C614.4 692.943436 588.8 680.237553 588.8 661.17873 588.8 642.119906 614.4 629.414024 646.4 629.414024 678.4 629.414024 704 642.119906 704 661.17873 704 680.237553 678.4 692.943436 646.4 692.943436M435.2 318.119906C403.2 318.119906 371.2 305.414024 371.2 292.708141 371.2 273.649318 396.8 260.943436 428.8 260.943436 460.8 260.943436 486.4 273.649318 486.4 292.708141 492.8 305.414024 467.2 318.119906 435.2 318.119906M262.4 381.649318C230.4 381.649318 204.8 368.943436 204.8 349.884612 204.8 337.17873 230.4 318.119906 262.4 318.119906 294.4 318.119906 320 330.825788 320 349.884612 326.4 368.943436 300.8 381.649318 262.4 381.649318M262.4 648.472847C224 648.472847 198.4 635.766964 198.4 616.708141 198.4 597.649318 224 584.943436 256 584.943436 288 584.943436 320 597.649318 320 616.708141 320 635.766964 294.4 648.472847 262.4 648.472847M211.2 508.708141C179.2 508.708141 147.2 489.649318 147.2 476.943436 147.2 457.884612 179.2 445.17873 211.2 445.17873 243.2 445.17873 268.8 457.884612 268.8 476.943436 268.8 489.649318 243.2 508.708141 211.2 508.708141M390.4 44.943437 979.2 127.531674C998.4 127.531674 1017.6 121.178726 1024 102.119904 1024 83.061082 1017.6 70.3552 998.4 64.002259L428.8-82.115386C384-94.821274 345.6-75.762445 332.8-37.6448 320-5.880096 345.6 32.237555 384 44.943437L390.4 44.943437M64-75.762445C57.6-82.115386 172.8-145.6448 256-120.233037 313.6-101.174214 332.8-63.056563 313.6-31.291859 288 19.531674 230.4 19.531674 204.8-5.880096 153.6-56.703622 134.4-75.762445 64-75.762445"  horiz-adv-x="1024" />

    
    <glyph glyph-name="chexiao2" unicode="&#58986;" d="M892.541481 540.693762 579.153958 249.692085l0 179.078585c-92.009554 0-313.387523 13.727653-313.387523-223.848231 0-124.428917 82.522482-244.61623 201.463408-268.6189C276.10592-38.119947 131.457496 121.328555 131.457496 316.846554c0 363.184673 384.323109 358.157169 447.696462 358.157169L579.153958 831.696462 892.541481 540.693762z"  horiz-adv-x="1024" />

    
    <glyph glyph-name="dianming" unicode="&#59062;" d="M466.748377 415.193443c-115.236558 0-208.988802 93.752244-208.988802 208.988802S351.511819 833.171046 466.748377 833.171046s208.988802-93.752244 208.988802-208.988802S581.984934 415.193443 466.748377 415.193443zM466.748377 792.238798c-92.666516 0-168.056554-75.390038-168.056554-168.056554s75.390038-168.056554 168.056554-168.056554c92.666516 0 168.056554 75.390038 168.056554 168.056554S559.414893 792.238798 466.748377 792.238798zM466.747353 34.330132 133.317355 34.330132c-18.441001 0-35.996842 7.945973-48.164976 21.800515-12.212136 13.903661-17.845437 32.41834-15.454994 50.79692 12.437264 95.615685 59.247382 183.633321 131.805932 247.838621 73.202209 64.774259 167.400614 100.446713 265.246083 100.446713 77.001745 0 151.787008-21.915126 216.271672-63.375399 62.774719-40.36022 112.949468-97.200786 145.101749-164.375721 4.880147-10.196223 0.571005-22.416546-9.624195-27.296693-10.1952-4.881171-22.416546-0.571005-27.296693 9.624195C731.74375 334.012516 604.3892 414.280654 466.748377 414.280654c-180.032306 0-333.277526-134.403083-356.460528-312.63437-0.88516-6.800893 1.110287-13.371542 5.617951-18.503423 4.463662-5.081739 10.647501-7.880481 17.412578-7.880481l333.429998 0c11.30344 0 20.466124-9.162684 20.466124-20.466124S478.050794 34.330132 466.747353 34.330132zM659.685597-60.571285c-0.064468 0-0.130983 0-0.196475 0.001023-4.681626 0.053212-9.145287 1.990331-12.379958 5.376451L513.054005 85.074863c-6.637164 6.945179-6.388501 17.956977 0.557702 24.595164 6.943133 6.636141 17.958 6.388501 24.595164-0.557702l121.760135-127.403668 269.840728 269.838681c6.79373 6.79373 17.807574 6.79373 24.601304 0 6.794753-6.79373 6.794753-17.807574 0-24.601304l-282.423301-282.422278C668.722414-58.74059 664.296615-60.571285 659.685597-60.571285z"  horiz-adv-x="1024" />

    
    <glyph glyph-name="cha" unicode="&#58890;" d="M886.528-12.032c-28.096-28.096-73.856-28.096-102.016 0L138.304 634.176c-28.096 28.16-28.16 73.856 0 102.016 28.032 28.16 73.792 28.16 102.08 0l646.144-646.144C914.624 61.76 914.752 16.128 886.528-12.032L886.528-12.032zM885.76 634.496 239.616-11.648c-28.224-28.224-73.92-28.224-102.08 0-28.16 28.096-28.16 73.728 0.064 102.016L783.744 736.448c28.224 28.16 73.984 28.16 102.016 0.064C913.984 708.352 913.856 662.656 885.76 634.496L885.76 634.496z"  horiz-adv-x="1024" />

    
    <glyph glyph-name="shexiangtou" unicode="&#59021;" d="M693.76 62.24c-54.976-26.816-116.48-42.24-181.76-42.24-63.296 0-123.136 14.592-176.832 39.872l-41.792-43.52c-33.28-34.688-8.704-92.352 39.36-92.352l371.264 0c47.232 0 70.848 57.152 37.504 90.496l-47.744 47.744zM512 596c88.256 0 160-71.808 160-160s-71.744-160-160-160-160 71.808-160 160 71.744 160 160 160M512 788c-194.368 0-352-157.568-352-352s157.632-352 352-352c194.432 0 352 157.568 352 352s-157.568 352-352 352l0 0z"  horiz-adv-x="1024" />

    
    <glyph glyph-name="gou" unicode="&#58670;" d="M800.068 650.749l-412.966-412.966-163.174 163.173c-24.418 24.416-64.005 24.416-88.423 0-24.414-24.415-24.414-64.004 0-88.42l195.48-195.481c13.024-13.021 36.739-18.951 56.342-18.022 19.476-0.924 42.872 5.006 55.89 18.025l445.271 445.271c24.418 24.418 24.418 64.005 0 88.421-24.416 24.418-64.002 24.418-88.42 0z"  horiz-adv-x="1024" />

    
    <glyph glyph-name="fangkuang" unicode="&#58989;" d="M223.074 895.184h577.861c122.742 0 222.247-99.516 222.247-222.258v-577.86c0-122.743-99.505-222.247-222.247-222.247h-577.86C100.331-127.181 0.827-27.677 0.827 95.065V672.926C0.828 795.658 100.332 895.184 223.074 895.184z"  horiz-adv-x="1024" />

    
    <glyph glyph-name="gou1" unicode="&#58886;" d="M954.58 384.043c0-244.543-198.079-442.58-442.58-442.58-244.371 0-442.58 198.037-442.58 442.58C69.42 628.501 267.629 826.537 512 826.537c244.501 0 442.58-198.036 442.58-442.494zM771.064 525.981l-68.807 68.764-286.9-287.376-93.658 93.963-68.764-68.634 159.529-159.443 2.893 2.983 2.852-2.983 352.855 352.726z"  horiz-adv-x="1024" />

    
    <glyph glyph-name="handsup" unicode="&#59041;" d="M864 691.2c-19.2 0-32-6.4-44.8-6.4v51.2c0 57.6-51.2 108.8-108.8 108.8-19.2 0-38.4-6.4-51.2-12.8-12.8 38.4-51.2 64-96 64s-83.2-25.6-96-64c-19.2 6.4-38.4 12.8-57.6 12.8-57.6 0-108.8-51.2-108.8-108.8v-352l-51.2 102.4c-12.8 25.6-38.4 44.8-64 51.2-32 6.4-57.6 6.4-83.2-12.8-51.2-32-64-96-38.4-147.2 6.4-12.8 38.4-83.2 134.4-268.8 44.8-96 102.4-166.4 153.6-204.8 44.8-32 76.8-32 83.2-32h256c44.8 0 83.2 12.8 121.6 44.8 32 25.6 64 64 89.6 115.2 44.8 96 70.4 224 70.4 384v172.8c0 57.6-44.8 102.4-108.8 102.4zM486.4 377.6c19.2 0 32 12.8 32 32v377.6c0 25.6 19.2 44.8 44.8 44.8 25.6 0 44.8-19.2 44.8-44.8v-377.6c0-19.2 12.8-32 32-32s32 12.8 32 32v326.4c0 25.6 19.2 44.8 44.8 44.8 25.6 0 44.8-19.2 44.8-44.8v-377.6c0-19.2 12.8-32 32-32s32 12.8 32 32v230.4c0 25.6 19.2 44.8 44.8 44.8 25.6 0 44.8-19.2 44.8-44.8v-179.2c0-140.8-25.6-268.8-64-352-32-57.6-83.2-121.6-160-121.6h-249.6s-19.2 0-51.2 25.6-76.8 70.4-134.4 179.2c-89.6 185.6-128 256-134.4 268.8-12.8 25.6-6.4 51.2 19.2 64 0 0 6.4 6.4 12.8 6.4h12.8c12.8 0 19.2-12.8 25.6-19.2l76.8-140.8c19.2-32 38.4-44.8 64-38.4s32 25.6 32 64v390.4c0 25.6 19.2 44.8 44.8 44.8s44.8-19.2 44.8-44.8v-326.4c0-19.2 12.8-32 32-32z"  horiz-adv-x="1024" />

    
    <glyph glyph-name="guanbishexiangtou" unicode="&#58625;" d="M525.68 192.384l-253.296 253.296c-0.264-4.536-0.384-9.096-0.384-13.68 0-132.552 107.448-240 240-240 4.584 0 9.144 0.144 13.68 0.384zM750.632-32.568l-104.616 104.616c-41.712-15.552-86.856-24.048-134.016-24.048-212.064 0-384 171.936-384 384 0 47.136 8.496 92.304 24.024 134.016l-36.912 36.912c-22.584-52.416-35.112-110.208-35.112-170.928 0-164.448 91.848-307.392 227.040-380.4l-41.208-103.032c-9.816-24.504 3.672-44.568 30.168-44.568h432.048c26.448 0 39.984 19.968 30.12 44.568l-7.536 18.864zM810.368 119.568c82.344 78.672 133.632 189.576 133.632 312.432 0 238.584-193.416 432-432 432-122.88 0-233.76-51.288-312.432-133.632l-61.488 61.488c-9.504 9.504-24.696 9.528-34.080 0.144-9.432-9.432-9.312-24.624 0.144-34.080l733.776-733.776c9.528-9.528 24.696-9.528 34.080-0.144 9.432 9.432 9.312 24.624-0.144 34.080l-61.488 61.488zM674.504 255.432c47.664 43.848 77.496 106.728 77.496 176.568 0 132.552-107.448 240-240 240-35.112 0-68.472-7.536-98.52-21.096 29.904-14.616 50.52-45.36 50.52-80.904 0-28.44-13.176-53.784-33.768-70.272l-196.704 196.68c69.96 73.656 168.864 119.592 278.472 119.592 212.064 0 384-171.936 384-384 0-109.608-45.936-208.512-119.568-278.496l-101.928 101.928z"  horiz-adv-x="1024" />

    
    <glyph glyph-name="shangchuan" unicode="&#59050;" d="M128 43.075c0 20.335 19.785 35.17 41.765 35.17H854.44c21.985 0 41.765-14.835 41.765-35.17v-76.931c0-20.33-19.785-41.765-41.765-41.765H169.765c-21.98 0-41.765 21.43-41.765 41.765v76.93z m0 419.825L511.55 840.96 896.204 462.9H128z m229.69-230.795V611.26c0 23.635 7.7 41.765 23.08 55.505 15.385 13.74 33.525 20.335 53.85 20.335h154.965c20.325 0 38.465-6.596 53.85-20.335 15.385-13.74 23.079-31.87 23.079-55.505v-379.155c0-20.335-7.695-38.465-23.08-53.85-15.385-15.38-33.524-23.08-53.85-23.08H434.62c-20.325 0-38.465 7.701-53.85 23.08-15.385 15.385-23.08 33.515-23.08 53.85z m0 0"  horiz-adv-x="1024" />

    
    <glyph glyph-name="quxiaoshangchuan" unicode="&#58888;" d="M513 829.3c-246.6 0-446.5-199.9-446.5-446.5S266.4-63.7 513-63.7s446.5 199.9 446.5 446.5S759.6 829.3 513 829.3z m226.9-672.1c-24.9-24.8-65.6-24.8-90.4 0.1L513 293.7 377.3 158c-24.9-24.9-65.5-24.9-90.4 0-24.8 24.9-24.8 65.6 0 90.4l135.7 135.7-135.4 135.4c-24.9 24.9-24.9 65.5 0 90.4 24.9 24.9 65.5 24.9 90.4 0L513 474.5l136.1 136.1c24.9 24.9 65.5 24.9 90.4 0 24.9-24.9 24.9-65.5 0-90.4L603.4 384.1l136.5-136.5c24.9-24.9 24.9-65.5 0-90.4z"  horiz-adv-x="1024" />

    
    <glyph glyph-name="jiguangbi" unicode="&#58932;" d="M960 384c0 247.4-200.6 448-448 448S64 631.4 64 384s200.6-448 448-448 448 200.6 448 448z m64 0c0-282.8-229.2-512-512-512S0 101.2 0 384 229.2 896 512 896s512-229.2 512-512zM512 128c-141.2 0-256 114.8-256 256s114.8 256 256 256 256-114.8 256-256-114.8-256-256-256z m0 448c-105.9 0-192-86.1-192-192s86.1-192 192-192 192 86.1 192 192-86.1 192-192 192zM668 352h168c15.5 0 28 14.3 28 32s-12.5 32-28 32H668c-15.5 0-28-14.3-28-32s12.5-32 28-32zM188 352h168c15.5 0 28 14.3 28 32s-12.5 32-28 32H188c-15.5 0-28-14.3-28-32s12.5-32 28-32zM544 540V708c0 15.5-14.3 28-32 28s-32-12.5-32-28v-168c0-15.5 14.3-28 32-28s32 12.5 32 28zM544 60V228c0 15.5-14.3 28-32 28s-32-12.5-32-28v-168c0-15.5 14.3-28 32-28s32 12.5 32 28zM512 336c-26.6 0-48 21.5-48 48s21.4 48 48 48c26.5 0 48-21.5 48-48s-21.5-48-48-48z"  horiz-adv-x="1024" />

    
    <glyph glyph-name="qingping" unicode="&#58896;" d="M703.9 510.604c-19.838 0-35.888-16.05-35.888-35.888v-332.959c0-19.838 16.05-35.888 35.888-35.888s35.888 16.05 35.888 35.888v332.96c0 19.837-16.05 35.887-35.888 35.887z m-386.79 0c-19.839 0-35.889-16.05-35.889-35.888v-332.959c0-19.838 16.05-35.888 35.888-35.888s35.888 16.05 35.888 35.888v332.96c0 19.837-16.05 35.887-35.888 35.887z m194.392 0c-19.838 0-35.888-16.05-35.888-35.888v-332.959c0-19.838 16.05-35.888 35.888-35.888 19.838 0 35.887 16.05 35.887 35.888v332.96c0 19.837-16.05 35.887-35.887 35.887z m320.897-501.433H201.47v621.06H832.4v-621.06zM354.79 758.73h313.92v-57.72H354.79v57.72z m594.742-67.689c-6.78 6.78-16.649 10.567-26.218 10.567H739.29v57.321c0 38.78-31.502 70.28-70.28 70.28H354.89c-38.778 0-70.28-31.5-70.28-70.28v-57.32H99.689C80.05 701.607 64 685.657 64 665.918c0-19.738 15.95-35.688 35.688-35.688h31.502v-621.16c0-38.778 31.502-70.28 70.28-70.28H832.5c38.778 0 70.28 31.502 70.28 70.28v621.16h20.536c19.638 0 36.685 15.95 36.685 35.688 0 9.47-3.688 18.343-10.467 25.121z"  horiz-adv-x="1024" />

    
    <glyph glyph-name="fangkuang1" unicode="&#58975;" d="M85.333333 810.666667v-853.333334h853.333334V810.666667H85.333333z m0 85.333333h853.333334a85.333333 85.333333 0 0 0 85.333333-85.333333v-853.333334a85.333333 85.333333 0 0 0-85.333333-85.333333H85.333333a85.333333 85.333333 0 0 0-85.333333 85.333333V810.666667a85.333333 85.333333 0 0 0 85.333333 85.333333z"  horiz-adv-x="1024" />

    
    <glyph glyph-name="xiangpica" unicode="&#58919;" d="M588.8 578.2h10c1.1 0 2-0.9 2-2v-10c0-1.1-0.9-2-2-2h-10c-1.1 0-2 0.9-2 2v10c0 1.1 0.9 2 2 2zM928 868.1h10c1.1 0 2-0.9 2-2v-10c0-1.1-0.9-2-2-2h-10c-1.1 0-2 0.9-2 2v10c0 1.1 0.9 2 2 2zM771.2 865.3c-40.9 40.9-107.2 40.9-148.1 0L30.7 272.9c-40.9-40.9-40.9-107.2 0-148.1l222.1-222.1c40.9-40.9 107.2-40.9 148.1 0l592.4 592.4c40.9 40.9 40.9 107.2 0 148.1L771.2 865.3z m-447.3-905L88.3 195.9l322 322 235.6-235.6-322-322z"  horiz-adv-x="1024" />

    
    <glyph glyph-name="quxiaoshangchuan1" unicode="&#58939;" d="M753.322667 746.069333l120.746666-120.661333-603.392-603.392-120.746666 120.661333zM874.069333 142.677333l-120.661333-120.746666-603.392 603.392 120.661333 120.746666z"  horiz-adv-x="1024" />

    
    <glyph glyph-name="shouyetubiao-" unicode="&#58933;" d="M991.573333 213.333333l-120.746666 120.746667L810.666667 394.24l-60.16-60.16L629.76 213.333333l60.16-60.16L768 230.826667V-42.666667h85.333333v273.493334l78.08-77.653334L991.573333 213.333333zM725.333333 128l-5.12-5.12-30.293333-30.293333-30.293333 30.293333-60.16 60.16-30.293334 30.293333 30.293334 30.293334 120.746666 120.746666 60.16 60.16 30.293334 30.293334 30.293333-30.293334 60.16-60.16L981.333333 285.44V298.666667a213.333333 213.333333 0 0 1-170.666666 209.066666 14.506667 14.506667 0 0 1 0 4.266667A298.666667 298.666667 0 0 1 213.333333 512a14.506667 14.506667 0 0 1 0-4.266667A213.333333 213.333333 0 0 1 256 85.333333h469.333333z"  horiz-adv-x="1024" />

    
    <glyph glyph-name="xinxisousuo" unicode="&#58991;" d="M36.352 822.784h950.784c19.968 0 36.352-16.384 36.352-36.352 0-19.968-16.384-36.352-36.352-36.352H36.352c-19.968 0-36.352 16.384-36.352 36.352 0 19.968 16.384 36.352 36.352 36.352zM38.4 661.504h437.248c19.968 0 36.352-16.384 36.352-36.352 0-19.968-16.384-36.352-36.352-36.352H38.4C18.432 588.8 2.048 605.184 2.048 625.152c0 19.968 16.384 36.352 36.352 36.352zM38.4 500.736h292.352c19.968 0 36.352-16.384 36.352-36.352 0-19.968-16.384-36.352-36.352-36.352H38.4c-19.968 0-36.352 16.384-36.352 36.352 0 19.968 16.384 36.352 36.352 36.352zM36.352 340.992h218.624c19.968 0 36.352-16.384 36.352-36.352 0-19.968-16.384-36.352-36.352-36.352H36.352c-19.968 0-36.352 16.384-36.352 36.352 1.024 19.968 16.384 36.352 36.352 36.352zM38.4 179.712h292.352c19.968 0 36.352-16.384 36.352-36.352 0-19.968-16.384-36.352-36.352-36.352H38.4c-19.968 0-36.352 16.384-36.352 36.352 0 19.968 16.384 36.352 36.352 36.352zM38.4 18.944h437.248c19.968 0 36.352-16.384 36.352-36.352 0-19.968-16.384-36.352-36.352-36.352H38.4c-19.968 0-36.352 16.384-36.352 36.352 0 19.968 16.384 36.352 36.352 36.352zM819.2 146.944c-95.232-95.232-248.832-95.232-343.552 0s-95.232 248.832 0 343.552c95.232 94.208 248.832 94.208 343.552 0 95.232-94.72 95.232-249.344 0-343.552z m-290.816 290.816c-66.048-66.048-66.048-172.032 0-237.568 66.048-66.048 172.032-66.048 237.568 0 66.048 66.048 66.048 172.032 0 237.568-65.536 65.024-171.52 65.024-237.568 0zM1006.592 32.768c18.432-18.432 18.432-47.616 0-65.024l-8.192-8.192c-18.432-18.432-47.616-18.432-65.024 0l-167.424 167.424c-18.432 18.432-18.432 47.616 0 65.024 23.04 23.04 59.392 23.04 81.408 0l159.232-159.232z"  horiz-adv-x="1024" />

    
    <glyph glyph-name="shangchuan1" unicode="&#58913;" d="M819.2 475.73333334c-32 147.2-153.6 256-307.2 256-121.6 0-224-70.4-275.2-172.8-128-19.2-224-121.6-224-256 0-140.8 115.2-256 249.6-256h537.6c115.2 0 204.8 96 204.8 211.2 6.4 115.2-83.2 211.2-185.6 217.6m-224-128v-172.8H428.8V347.73333333999994H307.2L512 558.93333334l204.8-211.2H595.2z m0 0"  horiz-adv-x="1024" />

    
    <glyph glyph-name="zhixian" unicode="&#58924;" d="M32 416h960v-64H32v64z"  horiz-adv-x="1024" />

    
    <glyph glyph-name="gongxiangpingmu" unicode="&#58968;" d="M1091.368421 896h-997.052632C43.115789 896 0 852.884211 0 801.684211v-622.484211C0 128 43.115789 87.578947 94.315789 87.578947h458.105264v-132.042105h-156.294737c-24.252632 0-45.810526-18.863158-45.810527-40.421053s18.863158-40.421053 45.810527-40.421052h393.431579c24.252632 0 45.810526 18.863158 45.810526 40.421052s-18.863158 40.421053-45.810526 40.421053h-156.294737V87.578947h458.105263c51.2 0 94.315789 43.115789 94.31579 94.31579v619.789474C1185.684211 852.884211 1142.568421 896 1091.368421 896z m-266.778947-431.157895l-161.684211-129.347368c-18.863158-13.473684-32.336842 0-32.336842 21.557895v70.063157h-24.252632c-70.063158 0-210.189474-29.642105-245.221052-88.926315-5.389474-10.778947-13.473684-8.084211-13.473684 0 2.694737 105.094737 175.157895 223.663158 280.252631 223.663158h2.694737V626.526316c0 24.252632 13.473684 35.031579 32.336842 21.557895l164.378948-132.042106c16.168421-13.473684 16.168421-37.726316-2.694737-51.2z"  horiz-adv-x="1185" />

    
    <glyph glyph-name="shexiangtou1" unicode="&#58920;" d="M512-128C229.229714-128 0 101.229714 0 384S229.229714 896 512 896s512-229.229714 512-512-229.229714-512-512-512z m79.433143 694.857143H272.786286S219.428571 566.857143 219.428571 515.072v-262.144C219.428571 201.142857 272.822857 201.142857 272.822857 201.142857h318.610286s53.357714 0 53.357714 51.785143v260.571429C644.754286 566.857143 591.36 566.857143 591.36 566.857143z m218.148571-26.697143c-4.681143 1.572571-9.398857 1.572571-12.544-1.572571l-105.179428-81.590858c-3.108571-3.145143-4.681143-6.290286-4.681143-9.435428v-130.267429c0-3.145143 1.572571-7.862857 4.681143-9.435428l105.179428-81.590857a11.995429 11.995429 0 0 1 7.862857-3.145143c1.572571 0 3.108571 0 6.253715 1.572571 4.717714 1.572571 6.290286 6.253714 6.290285 10.971429V529.188571a11.812571 11.812571 0 0 1-7.862857 10.971429z"  horiz-adv-x="1024" />

    
    <glyph glyph-name="pen" unicode="&#58899;" d="M914.18750027 723.2005814199999l-63.24854644 63.11773224c-26.22819781 26.0973836-68.67732541 26.0973836-94.90552322 0l-79.14244153-78.88081393 158.21947677-157.76162787 79.07703525 78.81540683C940.41569727 654.65406939 940.41569727 697.03779071 914.18750027 723.2005814199999zM217.21075601 249.19622131000006l158.21947678-157.76162787 430.11627869 425.47238334L647.3270347 674.66860464 217.21075601 249.19622131000006zM90.125-37.875l253.125 99.87645327L186.40406995 218.45494153000004 90.125-37.875z"  horiz-adv-x="1024" />

    
    <glyph glyph-name="dian1" unicode="&#59827;" d="M512 832c247.4 0 448-200.6 448-448S759.4-64 512-64 64 136.6 64 384 264.6 832 512 832z"  horiz-adv-x="1024" />

    
    <glyph glyph-name="microphone" unicode="&#58889;" d="M521.87 864C429.65 864 354.89 788.28 354.89 694.8v-297.36c0-93.42 74.76-169.2 166.98-169.2 92.16 0 166.92 75.78 166.92 169.2V694.86C688.79 788.28 614.03 864 521.87 864zM236.69 439.8a34.98 34.98 0 0 1-34.02-42.36H201.89c0-164.64 121.32-300.36 278.28-321.18v-87.6h-55.68a42 42 0 0 1-41.76-42.36 42 42 0 0 1 41.76-42.3H619.31a42 42 0 0 1 41.76 42.3 42 42 0 0 1-41.76 42.36h-55.68v87.6c152.4 20.16 270.84 148.8 277.56 307.02A38.22 38.22 0 0 1 841.91 390.36c0 0.9-0.18 1.62-0.18 2.4 0 1.56 0.18 3.06 0.18 4.68h-0.72a34.92 34.92 0 0 1-34.2 28.2 34.98 34.98 0 0 1-34.08-28.2h-0.72c0-140.1-112.2-253.68-250.44-253.68-138.3 0-250.44 113.58-250.44 253.68h-0.72a34.8 34.8 0 0 1-33.9 42.3z"  horiz-adv-x="1024" />

    
    <glyph glyph-name="dianming1" unicode="&#58907;" d="M741.42283639 631.46876894c50.32594052-50.93130115 75.49038369-115.03471906 75.4903837-192.32203693 0-63.51278626-20.08147603-121.63476997-60.21349728-174.34827633-39.54286249-49.73825468-82.68106623-74.59338949-129.41313838-74.59338949-37.74445539 0-58.41509018 19.77216769-62.01043146 59.31503016-30.55671863-40.75063793-68.30264692-61.11196436-113.23778486-61.11196435-37.15529663 0-67.71201526 12.87753741-91.6672101 38.64439538-23.36603609 25.16444316-35.0490541 57.20878764-35.04905411 96.16101847 0 67.69728629 20.36132644 125.50996166 61.11196437 173.44980923 38.93897476 47.92659151 85.37646752 71.8965153 139.29922223 71.89651531 43.13820377 0 71.8965153-22.46756897 86.27640751-67.40270692l13.47995222 50.32741343h58.41509018L620.09590187 316.92133039c-7.18920965-25.76685799-10.78307805-44.03519795-10.78307804-54.8212218 0-14.98230704 8.38372902-22.46756897 25.16444315-22.46756897 27.5505361 0 55.40890764 17.66592515 83.57806043 53.0242876 32.35365283 41.33979667 48.53047923 89.8702759 48.53047925 145.58996478 0 64.10194502-21.56910188 117.12623263-64.70730565 159.07138993-46.14291339 45.52576959-108.44792422 68.30117403-186.92976146 68.30117403-82.68106623 0-150.98224027-27.2706857-204.90499496-81.78112626-52.72823533-53.33212304-79.08572496-121.92934934-79.08572497-205.80346205 0-91.07805135 26.65206901-161.17763246 79.98419207-210.29579755 50.91657217-47.33743276 120.11768618-70.9980482 207.60039625-70.9980482 62.90889855 0 118.02469972 11.37518258 165.36213247 34.1520599 41.93042832 20.96374126 75.18254825 49.11963798 99.75635976 84.47800045h62.90889854c-31.76154828-53.92275471-76.9927385-95.26402427-135.70388095-124.02086292-58.1219837-28.1691528-122.22392871-42.23973666-192.32203692-42.23973667-107.25487775 0-192.02893046 29.65677863-254.33394131 88.97033591-63.51278626 61.11196436-95.26255137 141.68678806-95.26255136 241.75245616 0 94.05477593 31.74976511 172.54986925 95.26255136 235.4602407 66.50423982 67.09339858 151.27829253 100.65482685 254.33394131 100.65482683 94.05477593-0.0014729 168.35064025-28.1706257 222.87875555-84.47947332zM434.06460751 456.22055261c-30.55524574-37.74445539-45.83360506-82.98890169-45.83360506-135.70388095 0-24.57528441 5.68685485-43.74209149 17.07529351-57.51809598 11.97759742-14.37989222 29.05289092-21.56910188 51.22588052-21.56910188 22.76214835 0 44.93513796 8.98761675 66.50423983 26.96137737 21.56910188 17.97376061 35.94752122 38.94044767 43.13673086 62.90889854l19.77216768 73.6949224c5.9829071 25.75360192 8.98761675 40.13349413 8.98761674 43.13820374 0 16.1768264-5.0976961 30.24741029-15.27835929 42.23973666-11.38696577 14.37841933-26.06143737 21.56910188-44.03519795 21.5691019-39.54433538-0.0014729-73.40034302-18.57912122-101.55476684-55.7211618z"  horiz-adv-x="1024" />

    
    <glyph glyph-name="jushouxin" unicode="&#58911;" d="M919.296 632v-537.088c0-81.536-63.808-157.888-145.344-157.888h-273.92c-40 0-77.056 25.6-104.768 53.76 0 0-184 282.112-207.36 323.392-40.896 72.128 20.096 117.568 73.984 79.744 6.656-4.672 101.824-116.608 101.824-116.608V687.424a55.488 55.488 0 1 0 111.04 0v-259.2h37.184V780.032a55.424 55.424 0 1 0 111.04 0v-351.808h37.056V743.04a55.488 55.488 0 1 0 111.04 0v-314.816h37.056V632c0 30.656 24.832 55.424 55.616 55.424s55.552-24.768 55.552-55.424z"  horiz-adv-x="1024" />

    
    <glyph glyph-name="arrow-bottom" unicode="&#58626;" d="M517.688889 99.55555600000002c-45.511111 0-85.333333 17.066667-119.466667 51.2L73.955556 514.8444440000001c-22.755556 22.755556-17.066667 56.888889 5.688888 79.644445 22.755556 22.755556 56.888889 17.066667 79.644445-5.688889l329.955555-364.088889c5.688889-5.688889 17.066667-11.377778 28.444445-11.377778s22.755556 5.688889 34.133333 17.066667l312.888889 364.088889c22.755556 22.755556 56.888889 28.444444 79.644445 5.688889 22.755556-22.755556 28.444444-56.888889 5.688888-79.644445L637.155556 156.44444399999998c-28.444444-39.822222-68.266667-56.888889-119.466667-56.888888 5.688889 0 0 0 0 0z"  horiz-adv-x="1024" />

    
    <glyph glyph-name="biaoqinganniuicon" unicode="&#58646;" d="M512-128C229.224918-128 0 101.224918 0 384S229.224918 896 512 896 1024 666.775082 1024 384 794.775082-128 512-128z m0 990.42623C247.774426 862.42623 33.57377 648.225574 33.57377 384S247.774426-94.42623 512-94.42623 990.42623 119.774426 990.42623 384 776.225574 862.42623 512 862.42623z m212.286951-415.979017a49.940984 49.940984 0 1 0 0 99.881967 49.940984 49.940984 0 0 0 0-99.881967zM770.920918 308.459016c-12.674098-131.87777-123.719344-235.016393-258.920918-235.016393-135.201574 0-246.24682 103.138623-258.920918 235.016393h50.729967c12.472656-103.994754 100.83882-184.655738 208.190951-184.655737s195.718295 80.660984 208.190951 184.655737h50.729967z m-471.207869 137.988197a49.940984 49.940984 0 1 0-0.016787 99.881967 49.940984 49.940984 0 0 0 0.016787-99.881967z"  horiz-adv-x="1024" />

    
    <glyph glyph-name="xitongshezhi-weizhaodaoxiangguanneirong" unicode="&#58944;" d="M474.496 806.4v-320.896H153.6V-38.4h698.496V806.4zM180.288 575.104h204.608V781.056zM372.864 896h568.832v-1024H64V585.152zM556.16 347.392l63.36 63.36 167.872-168-167.808-168.32-63.424 63.296 104.64 104.96z m-194.56-104.704l104.64-104.96-63.424-63.296-167.808 168.32 167.808 167.936 63.36-63.36z"  horiz-adv-x="1024" />

    
    <glyph glyph-name="quanping" unicode="&#59189;" d="M378.88 455.68c-16.896 0-30.72-13.824-30.72-30.72s13.824-30.72 30.72-30.72h102.4l-218.112-218.112-1.536-1.536c-11.776-12.288-10.752-31.744 1.536-43.52s31.744-10.752 43.52 1.536L527.36 353.28v-107.52c0-16.896 13.824-30.72 30.72-30.72s30.72 13.824 30.72 30.72V424.96c0 16.896-13.824 30.72-30.72 30.72H378.88zM819.2 768H204.8c-42.496 0-76.8-34.304-76.8-76.8v-614.4c0-42.496 34.304-76.8 76.8-76.8h614.4c42.496 0 76.8 34.304 76.8 76.8V691.2c0 42.496-34.304 76.8-76.8 76.8z m15.36-102.4v-563.2c0-22.528-18.432-40.96-40.96-40.96H230.4c-22.528 0-40.96 18.432-40.96 40.96V665.6c0 22.528 18.432 40.96 40.96 40.96h563.2c22.528 0 40.96-18.432 40.96-40.96zM824.32 560.64h10.24v-30.72h-10.24zM804.352 529.92h-19.968v30.72h19.968v-30.72z m-39.936 0h-19.968v30.72h19.968v-30.72z m-39.936 0h-19.968v30.72h19.968v-30.72z m-40.448 0h-19.968v30.72h19.968v-30.72z m-39.936 0h-20.48l0.512 30.72h19.968v-30.72z m-45.568 5.632c-8.192 3.584-15.36 8.192-21.504 14.336l21.504 21.504c3.584-3.584 7.168-6.144 11.776-7.68l-11.776-28.16z m-35.328 35.328c-3.584 8.192-5.12 16.384-5.632 25.088l30.72 0.512c0-4.608 1.024-9.216 3.072-13.824l-28.16-11.776z m25.088 45.568h-30.72v19.968h30.72v-19.968z m0 39.936h-30.72v19.968h30.72v-19.968zM557.056 706.56h30.72v-10.24h-30.72z"  horiz-adv-x="1024" />

    
    <glyph glyph-name="jiantou3" unicode="&#58627;" d="M903.03367274 384.39906301l-54.56806765 54.56806763-318.54893112 318.54893114-0.02899768-0.02899765a38.82233973 38.82233973 0 0 1-1.11710022 1.17509555c-15.0994944 15.0994944-39.57904052 15.0994944-54.6785349-1e-8-15.0994944-15.0994944-15.0994944-39.57904052 0-54.6785349 0.38387374-0.38387374 0.77879422-0.75255825 1.17509551-1.11710025l-0.02899763-0.02899764L793.78568935 384.28997657l-320.2722205-320.27222051c-15.0994944-15.0994944-15.0994944-39.57904052 0-54.6785349s39.57904052-15.0994944 54.6785349 0L903.14275917 384.28997657l-0.10908643 0.10908644z"  horiz-adv-x="1024" />

    
    <glyph glyph-name="quxian" unicode="&#59105;" d="M765.44 32c-30.293333 0-58.026667 12.373333-82.346667 36.693333-17.92 17.92-34.133333 42.666667-49.92 75.093334-25.173333 53.333333-45.653333 121.173333-71.68 210.773333-3.84 12.8-7.253333 25.173333-10.666666 37.546667-20.053333 70.826667-39.253333 137.386667-66.986667 184.32-26.453333 44.373333-55.893333 63.573333-98.133333 63.573333-37.12 0-69.12-15.786667-98.56-48.213333-28.16-31.146667-52.48-76.373333-72.533334-134.826667-37.546667-108.8-50.773333-236.8-50.773333-313.173333H68.266667c0 84.053333 14.506667 224.853333 55.893333 344.746666 70.4 204.8 180.906667 247.466667 261.12 247.466667 40.533333 0 76.8-10.666667 108.373333-31.573333 27.306667-18.346667 50.773333-43.946667 71.253334-78.506667 34.56-58.026667 55.04-130.56 77.226666-207.36 3.413333-12.373333 7.253333-24.746667 10.666667-37.12 20.053333-68.266667 42.24-145.493333 66.56-196.266667 17.066667-35.84 34.133333-57.173333 46.506667-57.173333 7.253333 0 31.146667 15.36 57.173333 62.72 24.746667 44.373333 37.973333 91.306667 37.973333 113.493333H955.733333c0-42.666667-19.626667-105.813333-49.92-160.426666-16.64-29.866667-34.986667-54.613333-54.613333-72.96-27.306667-25.6-55.893333-38.826667-85.76-38.826667z"  horiz-adv-x="1024" />

    
    <glyph glyph-name="tuoyuan" unicode="&#59031;" d="M512 38.7C265 38.7 64 193.6 64 384s201 345.3 448 345.3S960 574.4 960 384 759 38.7 512 38.7z m0 616c-205.9 0-373.3-121.4-373.3-270.7S306.1 113.3 512 113.3 885.3 234.8 885.3 384 717.9 654.7 512 654.7z"  horiz-adv-x="1024" />

    
    <glyph glyph-name="icon-copy" unicode="&#58984;" d="M375.34409008 383.70144711l354.56796444 354.57403259c14.90094459 14.89123555 14.90094459 39.06188325 0 53.95433245-14.89123555 14.90094459-39.06188325 14.90094459-53.95433244-1e-8l-381.54937838-381.55180562c-14.90458548-14.89123555-14.90458548-39.06188325 0-53.95433243l381.550592-381.55059201c7.44804503-7.45168592 17.21290903-11.17874252 26.97655941-11.17874253s19.529728 3.72705659 26.97655941 11.17874253c14.90458548 14.89123555 14.90458548 39.06188325 0 53.95433244l-354.57039171 354.57524623z"  horiz-adv-x="1024" />

    
    <glyph glyph-name="zifubiankuang" unicode="&#58996;" d="M170.667 725.333h682.666v-682.666H170.667V725.333z m42.666-42.666v-597.334h597.334V682.667H213.333z m261.334-85.334h79.36l176-456.96h-74.88l-42.88 117.76h-196.48l-42.88-117.76h-74.24l176 456.96z m-37.76-281.6h154.24l-75.52 206.72h-2.56l-76.16-206.72z"  horiz-adv-x="1024" />

    
    <glyph glyph-name="zititubiaoxiugai-" unicode="&#58897;" d="M896 682.666667H128c-10.666667 0-21.333333 8.533333-21.333333 21.333333 0 10.666667 8.533333 21.333333 21.333333 21.333333h768c10.666667 0 21.333333-8.533333 21.333333-21.333333s-10.666667-21.333333-21.333333-21.333333zM881.066667 409.6H142.933333C123.733333 409.6 106.666667 426.666667 106.666667 448s17.066667 36.266667 36.266666 36.266667h736c21.333333 0 38.4-17.066667 38.4-36.266667 0-21.333333-17.066667-38.4-36.266666-38.4zM864 53.33333300000004h-704C130.133333 53.33333300000004 106.666667 76.79999999999995 106.666667 106.66666699999996s23.466667 53.333333 53.333333 53.333333h704c29.866667 0 53.333333-23.466667 53.333333-53.333333s-23.466667-53.333333-53.333333-53.333334z"  horiz-adv-x="1024" />

    
    <glyph glyph-name="huishoushanchu" unicode="&#58894;" d="M140.1 693.4c0 25.5 20.8 46.3 46.5 46.3H419v46.1c0 25.5 20.8 46.2 46.5 46.2h93c25.6 0 46.5-20.7 46.5-46.2v-46.2h232.4c25.6 0 46.5-20.7 46.5-46.2v-46.2H140.1v46.2zM837.4 555v-569.4c0-25.6-20.9-46.3-46.5-46.3H233.1c-25.7 0-46.5 20.7-46.5 46.3V601h650.9v-46z m-464.9-92.5c0 25.5-20.9 46.2-46.6 46.2-25.6 0-46.4-20.8-46.4-46.2v-384.8c0-25.5 20.9-46.2 46.5-46.2 25.7 0 46.5 20.7 46.5 46.2V462.5z m186 0c0 25.5-20.9 46.2-46.5 46.2-25.7 0-46.5-20.8-46.5-46.2v-384.8c0-25.5 20.9-46.2 46.5-46.2s46.5 20.7 46.5 46.2V462.5z m185.9 0c0 25.5-20.9 46.2-46.5 46.2-25.7 0-46.5-20.8-46.5-46.2v-384.8c0-25.5 20.9-46.2 46.5-46.2s46.5 20.7 46.5 46.2V462.5z m0 0"  horiz-adv-x="1024" />

    
    <glyph glyph-name="ShapeCopy" unicode="&#58954;" d="M512 279.365818c85.178182 0 154.251636 70.283636 154.251636 156.951273V645.585455c0 86.667636-69.073455 156.951273-154.251636 156.951272S357.748364 732.253091 357.748364 645.585455v-209.268364c0-86.667636 69.073455-156.951273 154.251636-156.951273z m223.325091-32.674909l115.432727-119.528727a33.978182 33.978182 0 0 0-48.872727-47.150546l-113.989818 118.039273a279.365818 279.365818 0 0 0-137.309091-59.578182v-94.533818h128.512c21.317818 0 38.586182-17.594182 38.586182-39.237818a38.912 38.912 0 0 0-38.586182-39.237818H344.901818a38.912 38.912 0 0 0-38.586182 39.237818c0 21.643636 17.221818 39.237818 38.586182 39.237818h128.558546v94.487273c-137.914182 19.083636-244.270545 139.031273-244.270546 284.532363v0.186182 0.139637c0 21.643636 17.221818 39.237818 38.586182 39.237818 21.317818 0 38.539636-17.594182 38.539636-39.237818 0.046545-115.572364 92.113455-209.221818 205.684364-209.268364a202.472727 202.472727 0 0 1 121.483636 40.401455L173.288727 730.996364a33.978182 33.978182 0 1 0 48.826182 47.150545l458.472727-474.763636c23.319273 33.978182 37.050182 75.264 37.096728 119.901091 0 21.643636 17.221818 39.237818 38.539636 39.237818 21.317818 0 38.586182-17.594182 38.586182-39.237818v-0.325819a288.721455 288.721455 0 0 0-59.485091-176.267636z"  horiz-adv-x="1024" />

    
    <glyph glyph-name="jushouxin1" unicode="&#58641;" d="M936.448-40.448L93.184 802.304c-16.896 16.896-44.544 16.896-60.928 0-16.896-16.384-16.896-44.032 0-60.928l842.752-842.752c16.896-16.896 44.544-16.896 60.928 0 16.896 16.896 16.896 44.032 0.512 60.928zM531.456 486.912V819.2C531.456 849.92 506.88 875.008 476.16 875.008S420.864 849.92 420.864 819.2v-221.184l110.592-111.104zM420.864 475.648v-8.192h-37.376v45.568L272.384 624.128v-307.712S177.152 428.544 170.496 433.152C116.736 471.04 55.808 425.472 96.768 353.28c23.552-41.472 207.36-323.584 207.36-323.584 27.648-28.16 65.024-53.76 104.96-53.76h273.92c62.464 0 114.176 44.544 135.168 102.4L420.864 475.648zM827.904 190.976V671.232c0 30.72-24.576 55.296-55.808 55.296-30.72 0-55.808-24.576-55.808-55.296v-203.776h-36.864V782.336c0 30.72-25.088 55.296-55.296 55.296s-55.296-25.088-55.296-55.296v-314.88h-17.408l276.48-276.48zM383.488 635.392V726.528c0 30.72-25.088 55.296-55.296 55.296-24.576 0-45.568-16.384-52.736-38.4l108.032-108.032z"  horiz-adv-x="1024" />

    
    <glyph glyph-name="quanping-copy" unicode="&#58628;" d="M93.090909 516.840727h114.967273V687.941818h172.404363V802.909091H93.090909v-286.068364z m114.967273-229.934545H93.090909v-286.021818h286.068364v114.967272H208.058182v171.101091zM609.047273 802.909091v-114.967273h172.450909v-172.404363h113.570909V802.909091h-286.021818z m171.101091-687.057455h-171.101091v-114.967272h286.068363v286.068363h-114.967272v-171.101091z"  horiz-adv-x="1024" />

    
    <glyph glyph-name="jushou" unicode="&#59301;" d="M876.5 630.6v-533.4c2.1-82.2-61-151.4-143.1-156.8H463.9c-40 3.6-77 22.9-102.9 53.5 0 0-181.3 280.1-204.3 320.9-40.1 71.7 19.8 116.9 73 79.3 6.4-4.8 100.1-116 100.1-116V685.4c0 30.2 24.5 54.6 54.7 54.6 30.2 0 54.6-24.5 54.6-54.6v-257.1h36.6V777.5c0 30.2 24.5 54.7 54.6 54.7 30.2 0 54.7-24.5 54.7-54.7v-349.2h36.3V740.8c-0.2 30.2 24 54.8 54.2 55.1 9.7 0.1 19.3-2.4 27.7-7.3 17.1-9.8 27.5-28.1 27.4-47.8v-312.6h36.6V630.6c0 30.2 24.5 54.6 54.6 54.6 30.3 0 54.7-24.4 54.7-54.6z"  horiz-adv-x="1024" />

    
    <glyph glyph-name="hua" unicode="&#58998;" d="M806.030447 617.626134l-171.209514 171.414188 85.604757 85.604758a72.825446 72.825446 0 0 0 103.040395 0l68.181912-68.181912a72.825446 72.825446 0 0 0 0-103.040395zM309.121183 120.704078L137.898877 291.888008l464.992965 461.564682 171.222307-171.18393zM0-19.957893l104.421942 278.407343L274.262701 88.60869z m0 0M983.815103-128c-23.47351 0-49.889204 3.965552-79.400587 13.981769-35.370166 11.909448-69.550667 31.583704-105.803489 52.447625-88.892328 51.257959-180.880345 104.255644-303.953173 50.055501-13.80268-6.037873-27.093675-12.075746-39.872987-17.781024-156.549764-70.075143-251.134578-112.353046-433.908154-16.911161a30.189364 30.189364 0 1 0 27.963539 53.50937c156.895151-81.9718 227.149384-50.567186 381.268647 18.510174 12.945609 5.692486 26.236604 11.730359 40.218374 17.908945 151.023575 66.621276 265.973418 0.345387 358.498703-52.984893 33.656025-19.328869 65.239728-37.621577 94.917409-47.637794 49.889204-16.911161 93.036969-13.981769 128.419928 8.45558 25.200444 16.05409 37.455279 36.598208 37.455279 36.764506a30.176572 30.176572 0 0 0 52.639506-29.511383c-1.893231-3.453868-19.853345-34.167709-57.820308-58.331992-22.949034-14.493453-56.605058-28.475223-100.622687-28.475223z m0 0"  horiz-adv-x="1146" />

    
    <glyph glyph-name="guanbibaiban" unicode="&#58950;" d="M708 677h-75.2c-15.2 53.1-63.9 91.9-121.5 91.9-57.7 0-106.3-38.8-121.5-91.9h-75.2c-77.6 0-140.5-63.3-140.5-141.4v-396c0-78.1 62.9-141.4 140.5-141.4H708c77.6 0 140.5 63.3 140.5 141.4v396C848.6 613.7 785.6 677 708 677z m-245-35.4c0 26.8 21.6 48.6 48.3 48.6 26.7 0 48.3-21.8 48.3-48.6 0.1-26.8-21.5-48.5-48.3-48.6-26.7 0.1-48.4 21.9-48.3 48.6z m152.8-417.7c4.4-4.4 4.4-11.7 0-16.2l-0.5-0.5c-4.4-4.4-11.7-4.4-16.2 0L511.4 295l-87.8-87.8c-4.4-4.4-11.7-4.4-16.2 0l-0.5 0.5c-4.4 4.4-4.4 11.7 0 16.2l87.8 87.8-87.8 87.8c-4.6 4.4-4.6 11.7 0 16.2l0.5 0.5c4.4 4.4 11.7 4.4 16.2 0l87.8-87.9 87.8 87.9c4.4 4.4 11.7 4.4 16.2 0l0.5-0.5c4.4-4.4 4.4-11.7 0-16.2L528 311.7l87.8-87.8z"  horiz-adv-x="1024" />

    
    <glyph glyph-name="baiban_A" unicode="&#59148;" d="M465.455 896v-93.09H26.95S0 802.91 0 779.635c0-23.272 26.95-23.272 26.95-23.272h970.1s26.95 0 26.95 23.272c0 23.273-26.95 23.273-26.95 23.273H558.545V896h-93.09zM26.95-128h970.1s26.95 0 26.95 23.273c0 23.272-26.95 23.272-26.95 23.272H26.95S0-81.455 0-104.727C0-128 26.95-128 26.95-128z m129.117 837.818s-109.522 0-109.522-106.403v-531.968c0-106.356 109.522-106.356 109.522-106.356h711.866s109.522 0 109.522 106.403V603.415c0 106.403-109.522 106.403-109.522 106.403H156.067z m774.842-100.864v-543.046c0-54.272-55.854-54.272-55.854-54.272h-726.11s-55.854 0-55.854 54.319v543c0 54.318 55.854 54.318 55.854 54.318h726.11s55.854 0 55.854-54.319z"  horiz-adv-x="1024" />

    
    <glyph glyph-name="qiehuanshipin" unicode="&#58940;" d="M896 384h-256a127.104 127.104 0 0 0-32 4.544l-130.56-129.92h38.4a64.896 64.896 0 1 0 0-129.728H320a65.216 65.216 0 0 0-65.28 64.896v194.56a65.28 65.28 0 0 0 130.56 0v-37.952l131.2 130.304A126.976 126.976 0 0 0 512 512V768a128 128 0 0 0 128 128h256a128 128 0 0 0 128-128v-256a128 128 0 0 0-128-128z m0 320a64 64 0 0 1-64 64h-128a64 64 0 0 1-64-64v-128a63.552 63.552 0 0 1 18.56-44.8h0.64a63.488 63.488 0 0 1 44.8-18.624h128a64 64 0 0 1 64 64v128zM384 640H192a64 64 0 0 1-64-64v-512a64 64 0 0 1 64-64h512a64 64 0 0 1 64 64v190.016h0.64c0 0.704-0.64 1.28-0.64 1.984a64 64 0 0 0 128 0c0-0.704-0.64-1.28-0.64-1.984H896V0a128 128 0 0 0-128-128H128a128 128 0 0 0-128 128V640a128 128 0 0 0 128 128h256a64 64 0 0 0 0-128z"  horiz-adv-x="1024" />

    
    <glyph glyph-name="qingping1" unicode="&#58936;" d="M720.64 471.1424l133.1456-130.304c6.016-5.888 8.7296-13.696 8.192-21.3504 0.5376-7.7824-2.1504-15.7696-8.064-21.6576l-283.648-283.5712a27.6736 27.6736 0 0 0-42.24 3.5072 28.416 28.416 0 0 0-1.1776 1.1264l-89.4976 89.4976a27.8272 27.8272 0 0 0-7.3216 7.3216l-94.848 94.848a27.8016 27.8016 0 0 0-7.424 7.3984L232.96 312.8064a27.8528 27.8528 0 0 0-7.3216 7.3216l-86.1696 86.1696A27.52 27.52 0 0 0 128 428.928a27.52 27.52 0 0 0 10.5472 21.9136l157.9008 157.8752a28.2112 28.2112 0 0 0 4.8128 4.8128l116.0448 116.0192a28.4928 28.4928 0 0 0 41.9328 2.56l135.0144-132.096 157.3376 157.2096a27.3152 27.3152 0 0 0 22.016 10.752 27.7248 27.7248 0 0 0 22.7072-11.4176l82.048-82.1248a27.4688 27.4688 0 0 0 11.5456-22.7072 27.392 27.392 0 0 0-10.2912-21.632l-158.976-158.9504z m-54.6048-24.1152a27.5968 27.5968 0 0 0-13.056 23.808 27.0336 27.0336 0 0 0 9.472 20.864l160.4352 160.384-48.8704 48.9216-161.8432-161.7664a27.7248 27.7248 0 0 0-46.0032 10.7008l-126.336 123.648-82.176-82.176 355.584-355.7376 83.4816 83.456-130.688 127.8976z m-347.4432 105.344L195.0208 428.8l53.9392-53.9648 41.3696 41.3184c10.752 10.752 28.0064 10.752 38.7584 0 10.624-10.752 10.624-28.1088 0-38.7072l-41.3952-41.3696 63.4368-63.488 64.6144 64.5888c10.752 10.752 27.9552 10.752 38.7072 0 10.7264-10.7264 10.7264-28.0832 0-38.6816l-64.6144-64.5888 63.488-63.5136 41.3696 41.344c10.752 10.752 27.9808 10.752 38.7328 0 10.752-10.752 10.752-27.9552 0-38.7072l-41.3952-41.3696 58.5472-58.5728 123.6736 123.648-355.6608 355.6352z"  horiz-adv-x="1024" />

    
    <glyph glyph-name="xiangmuguanlixitong-" unicode="&#59303;" d="M507.904 817.664A433.664 433.664 0 1 1 941.568 384a435.2 435.2 0 0 1-433.664 433.664z m189.952-547.84l-75.776-75.776-114.176 114.176-114.176-114.176-75.776 75.776L432.128 384 317.952 497.664l75.776 76.288 114.176-114.176 113.664 113.664 75.776-75.776L584.192 384z"  horiz-adv-x="1024" />

    
    <glyph glyph-name="dian2" unicode="&#58629;" d="M1.792 382.89300000000003c0-282.352 228.897-511.248 511.248-511.248s511.248 228.897 511.248 511.248c0 282.352-228.897 511.248-511.248 511.248-282.352 0-511.248-228.897-511.248-511.248z"  horiz-adv-x="1024" />

    
    <glyph glyph-name="wenzi" unicode="&#58900;" d="M440.1 797.8h143.8l318.8-827.7H767l-77.7 213.3H333.5l-77.7-213.3H121.3L440.1 797.8z m-68.4-510h279.4L514.3 662.2h-4.6l-138-374.4z"  horiz-adv-x="1024" />

    


  </font>
</defs>
</svg>
